<svg width="286" height="54" viewBox="0 0 286 54" fill="none" xmlns="http://www.w3.org/2000/svg">
<g filter="url(#filter0_d_83_607)">
<mask id="path-1-outside-1_83_607" maskUnits="userSpaceOnUse" x="5" y="5" width="270" height="38" fill="black">
<rect fill="white" x="5" y="5" width="270" height="38"/>
<path d="M7.7415 41V7.4H24.9735V13.16H14.3175V21.176H23.8215V26.744H14.3175V35.432H25.1655V41H7.7415ZM28.8821 41V7.4H35.4581V35.432H45.4421V41H28.8821ZM48.7103 41V7.4H65.9423V13.16H55.2863V21.176H64.7903V26.744H55.2863V35.432H66.1343V41H48.7103ZM69.8509 41V7.4H76.4269V21.56H76.6669L82.6669 7.4H89.4349L82.4269 23.432L89.7709 41H82.4749L76.7629 26.312H76.4269V41H69.8509ZM97.4936 13.16H90.2456V7.4H111.27V13.16H104.022V41H97.4936V13.16ZM114.054 7.4H126.822C128.838 8.072 130.55 9.32 131.958 11.144C133.398 12.936 134.118 15.144 134.118 17.768C134.118 22.056 132.422 25.208 129.03 27.224L133.878 41H127.158L123.078 28.76H120.534V41H114.054V7.4ZM120.534 13.16V23.384H124.662C125.206 23.256 125.798 22.712 126.438 21.752C127.11 20.76 127.446 19.608 127.446 18.296C127.446 16.984 127.158 15.832 126.582 14.84C126.038 13.848 125.494 13.288 124.95 13.16H120.534ZM152.765 7.4C155.005 9.224 156.669 11.672 157.757 14.744C158.845 17.816 159.389 20.984 159.389 24.248C159.389 27.48 158.861 30.552 157.805 33.464C156.749 36.376 155.069 38.888 152.765 41H142.877C140.573 38.888 138.893 36.376 137.837 33.464C136.781 30.552 136.253 27.48 136.253 24.248C136.253 20.984 136.797 17.816 137.885 14.744C138.973 11.672 140.637 9.224 142.877 7.4H152.765ZM146.093 35.432H149.549C150.349 34.504 151.021 33 151.565 30.92C152.141 28.808 152.429 26.584 152.429 24.248C152.429 21.912 152.157 19.72 151.613 17.672C151.069 15.592 150.397 14.088 149.597 13.16H146.093C145.293 14.088 144.605 15.592 144.029 17.672C143.485 19.72 143.213 21.912 143.213 24.248C143.213 26.584 143.485 28.808 144.029 30.92C144.605 33 145.293 34.504 146.093 35.432ZM178.108 41L169.132 22.424L168.892 22.52L169.18 28.184V41H163.132V7.4H167.98L176.812 26.696L177.052 26.6L176.524 20.696V7.4H182.572V41H178.108ZM187.179 41V7.4H193.755V41H187.179ZM198.382 41V7.4H204.958V21.56H205.198L211.198 7.4H217.966L210.958 23.432L218.302 41H211.006L205.294 26.312H204.958V41H198.382ZM242.592 41L241.584 35.672H234L232.992 41H226.464L232.944 7.4H242.88L249.024 41H242.592ZM237.696 13.64L235.824 24.824L234.768 30.536H240.768L239.664 24.824L237.792 13.64H237.696ZM251.82 41V7.4H265.5C267.068 7.976 268.46 8.984 269.676 10.424C270.892 11.864 271.5 13.608 271.5 15.656C271.5 19.272 270.316 21.8 267.948 23.24V23.432C270.892 25.064 272.364 27.624 272.364 31.112C272.364 35.112 270.332 38.408 266.268 41H251.82ZM258.348 21.272H263.1C264.508 20.408 265.212 19.096 265.212 17.336C265.212 15.576 264.556 14.184 263.244 13.16H258.348V21.272ZM258.348 35.432H263.292C263.868 35.016 264.38 34.36 264.828 33.464C265.308 32.568 265.548 31.672 265.548 30.776C265.548 29.88 265.356 29.064 264.972 28.328C264.588 27.592 264.108 27.048 263.532 26.696H258.348V35.432Z"/>
</mask>
<path d="M7.7415 41V7.4H24.9735V13.16H14.3175V21.176H23.8215V26.744H14.3175V35.432H25.1655V41H7.7415ZM28.8821 41V7.4H35.4581V35.432H45.4421V41H28.8821ZM48.7103 41V7.4H65.9423V13.16H55.2863V21.176H64.7903V26.744H55.2863V35.432H66.1343V41H48.7103ZM69.8509 41V7.4H76.4269V21.56H76.6669L82.6669 7.4H89.4349L82.4269 23.432L89.7709 41H82.4749L76.7629 26.312H76.4269V41H69.8509ZM97.4936 13.16H90.2456V7.4H111.27V13.16H104.022V41H97.4936V13.16ZM114.054 7.4H126.822C128.838 8.072 130.55 9.32 131.958 11.144C133.398 12.936 134.118 15.144 134.118 17.768C134.118 22.056 132.422 25.208 129.03 27.224L133.878 41H127.158L123.078 28.76H120.534V41H114.054V7.4ZM120.534 13.16V23.384H124.662C125.206 23.256 125.798 22.712 126.438 21.752C127.11 20.76 127.446 19.608 127.446 18.296C127.446 16.984 127.158 15.832 126.582 14.84C126.038 13.848 125.494 13.288 124.95 13.16H120.534ZM152.765 7.4C155.005 9.224 156.669 11.672 157.757 14.744C158.845 17.816 159.389 20.984 159.389 24.248C159.389 27.48 158.861 30.552 157.805 33.464C156.749 36.376 155.069 38.888 152.765 41H142.877C140.573 38.888 138.893 36.376 137.837 33.464C136.781 30.552 136.253 27.48 136.253 24.248C136.253 20.984 136.797 17.816 137.885 14.744C138.973 11.672 140.637 9.224 142.877 7.4H152.765ZM146.093 35.432H149.549C150.349 34.504 151.021 33 151.565 30.92C152.141 28.808 152.429 26.584 152.429 24.248C152.429 21.912 152.157 19.72 151.613 17.672C151.069 15.592 150.397 14.088 149.597 13.16H146.093C145.293 14.088 144.605 15.592 144.029 17.672C143.485 19.72 143.213 21.912 143.213 24.248C143.213 26.584 143.485 28.808 144.029 30.92C144.605 33 145.293 34.504 146.093 35.432ZM178.108 41L169.132 22.424L168.892 22.52L169.18 28.184V41H163.132V7.4H167.98L176.812 26.696L177.052 26.6L176.524 20.696V7.4H182.572V41H178.108ZM187.179 41V7.4H193.755V41H187.179ZM198.382 41V7.4H204.958V21.56H205.198L211.198 7.4H217.966L210.958 23.432L218.302 41H211.006L205.294 26.312H204.958V41H198.382ZM242.592 41L241.584 35.672H234L232.992 41H226.464L232.944 7.4H242.88L249.024 41H242.592ZM237.696 13.64L235.824 24.824L234.768 30.536H240.768L239.664 24.824L237.792 13.64H237.696ZM251.82 41V7.4H265.5C267.068 7.976 268.46 8.984 269.676 10.424C270.892 11.864 271.5 13.608 271.5 15.656C271.5 19.272 270.316 21.8 267.948 23.24V23.432C270.892 25.064 272.364 27.624 272.364 31.112C272.364 35.112 270.332 38.408 266.268 41H251.82ZM258.348 21.272H263.1C264.508 20.408 265.212 19.096 265.212 17.336C265.212 15.576 264.556 14.184 263.244 13.16H258.348V21.272ZM258.348 35.432H263.292C263.868 35.016 264.38 34.36 264.828 33.464C265.308 32.568 265.548 31.672 265.548 30.776C265.548 29.88 265.356 29.064 264.972 28.328C264.588 27.592 264.108 27.048 263.532 26.696H258.348V35.432Z" fill="#0539BC"/>
<path d="M7.7415 41H5.7415V43H7.7415V41ZM7.7415 7.4V5.4H5.7415V7.4H7.7415ZM24.9735 7.4H26.9735V5.4H24.9735V7.4ZM24.9735 13.16V15.16H26.9735V13.16H24.9735ZM14.3175 13.16V11.16H12.3175V13.16H14.3175ZM14.3175 21.176H12.3175V23.176H14.3175V21.176ZM23.8215 21.176H25.8215V19.176H23.8215V21.176ZM23.8215 26.744V28.744H25.8215V26.744H23.8215ZM14.3175 26.744V24.744H12.3175V26.744H14.3175ZM14.3175 35.432H12.3175V37.432H14.3175V35.432ZM25.1655 35.432H27.1655V33.432H25.1655V35.432ZM25.1655 41V43H27.1655V41H25.1655ZM9.7415 41V7.4H5.7415V41H9.7415ZM7.7415 9.4H24.9735V5.4H7.7415V9.4ZM22.9735 7.4V13.16H26.9735V7.4H22.9735ZM24.9735 11.16H14.3175V15.16H24.9735V11.16ZM12.3175 13.16V21.176H16.3175V13.16H12.3175ZM14.3175 23.176H23.8215V19.176H14.3175V23.176ZM21.8215 21.176V26.744H25.8215V21.176H21.8215ZM23.8215 24.744H14.3175V28.744H23.8215V24.744ZM12.3175 26.744V35.432H16.3175V26.744H12.3175ZM14.3175 37.432H25.1655V33.432H14.3175V37.432ZM23.1655 35.432V41H27.1655V35.432H23.1655ZM25.1655 39H7.7415V43H25.1655V39ZM28.8821 41H26.8821V43H28.8821V41ZM28.8821 7.4V5.4H26.8821V7.4H28.8821ZM35.4581 7.4H37.4581V5.4H35.4581V7.4ZM35.4581 35.432H33.4581V37.432H35.4581V35.432ZM45.4421 35.432H47.4421V33.432H45.4421V35.432ZM45.4421 41V43H47.4421V41H45.4421ZM30.8821 41V7.4H26.8821V41H30.8821ZM28.8821 9.4H35.4581V5.4H28.8821V9.4ZM33.4581 7.4V35.432H37.4581V7.4H33.4581ZM35.4581 37.432H45.4421V33.432H35.4581V37.432ZM43.4421 35.432V41H47.4421V35.432H43.4421ZM45.4421 39H28.8821V43H45.4421V39ZM48.7103 41H46.7103V43H48.7103V41ZM48.7103 7.4V5.4H46.7103V7.4H48.7103ZM65.9423 7.4H67.9423V5.4H65.9423V7.4ZM65.9423 13.16V15.16H67.9423V13.16H65.9423ZM55.2863 13.16V11.16H53.2863V13.16H55.2863ZM55.2863 21.176H53.2863V23.176H55.2863V21.176ZM64.7903 21.176H66.7903V19.176H64.7903V21.176ZM64.7903 26.744V28.744H66.7903V26.744H64.7903ZM55.2863 26.744V24.744H53.2863V26.744H55.2863ZM55.2863 35.432H53.2863V37.432H55.2863V35.432ZM66.1343 35.432H68.1343V33.432H66.1343V35.432ZM66.1343 41V43H68.1343V41H66.1343ZM50.7103 41V7.4H46.7103V41H50.7103ZM48.7103 9.4H65.9423V5.4H48.7103V9.4ZM63.9423 7.4V13.16H67.9423V7.4H63.9423ZM65.9423 11.16H55.2863V15.16H65.9423V11.16ZM53.2863 13.16V21.176H57.2863V13.16H53.2863ZM55.2863 23.176H64.7903V19.176H55.2863V23.176ZM62.7903 21.176V26.744H66.7903V21.176H62.7903ZM64.7903 24.744H55.2863V28.744H64.7903V24.744ZM53.2863 26.744V35.432H57.2863V26.744H53.2863ZM55.2863 37.432H66.1343V33.432H55.2863V37.432ZM64.1343 35.432V41H68.1343V35.432H64.1343ZM66.1343 39H48.7103V43H66.1343V39ZM69.8509 41H67.8509V43H69.8509V41ZM69.8509 7.4V5.4H67.8509V7.4H69.8509ZM76.4269 7.4H78.4269V5.4H76.4269V7.4ZM76.4269 21.56H74.4269V23.56H76.4269V21.56ZM76.6669 21.56V23.56H77.9916L78.5084 22.3403L76.6669 21.56ZM82.6669 7.4V5.4H81.3422L80.8254 6.6197L82.6669 7.4ZM89.4349 7.4L91.2674 8.20106L92.4919 5.4H89.4349V7.4ZM82.4269 23.432L80.5943 22.6309L80.2518 23.4144L80.5816 24.2034L82.4269 23.432ZM89.7709 41V43H92.7747L91.6161 40.2286L89.7709 41ZM82.4749 41L80.6109 41.7249L81.1067 43H82.4749V41ZM76.7629 26.312L78.6269 25.5871L78.131 24.312H76.7629V26.312ZM76.4269 26.312V24.312H74.4269V26.312H76.4269ZM76.4269 41V43H78.4269V41H76.4269ZM71.8509 41V7.4H67.8509V41H71.8509ZM69.8509 9.4H76.4269V5.4H69.8509V9.4ZM74.4269 7.4V21.56H78.4269V7.4H74.4269ZM76.4269 23.56H76.6669V19.56H76.4269V23.56ZM78.5084 22.3403L84.5084 8.1803L80.8254 6.6197L74.8254 20.7797L78.5084 22.3403ZM82.6669 9.4H89.4349V5.4H82.6669V9.4ZM87.6023 6.59894L80.5943 22.6309L84.2594 24.2331L91.2674 8.20106L87.6023 6.59894ZM80.5816 24.2034L87.9256 41.7714L91.6161 40.2286L84.2721 22.6606L80.5816 24.2034ZM89.7709 39H82.4749V43H89.7709V39ZM84.3389 40.2751L78.6269 25.5871L74.8989 27.0369L80.6109 41.7249L84.3389 40.2751ZM76.7629 24.312H76.4269V28.312H76.7629V24.312ZM74.4269 26.312V41H78.4269V26.312H74.4269ZM76.4269 39H69.8509V43H76.4269V39ZM97.4936 13.16H99.4936V11.16H97.4936V13.16ZM90.2456 13.16H88.2456V15.16H90.2456V13.16ZM90.2456 7.4V5.4H88.2456V7.4H90.2456ZM111.27 7.4H113.27V5.4H111.27V7.4ZM111.27 13.16V15.16H113.27V13.16H111.27ZM104.022 13.16V11.16H102.022V13.16H104.022ZM104.022 41V43H106.022V41H104.022ZM97.4936 41H95.4936V43H97.4936V41ZM97.4936 11.16H90.2456V15.16H97.4936V11.16ZM92.2456 13.16V7.4H88.2456V13.16H92.2456ZM90.2456 9.4H111.27V5.4H90.2456V9.4ZM109.27 7.4V13.16H113.27V7.4H109.27ZM111.27 11.16H104.022V15.16H111.27V11.16ZM102.022 13.16V41H106.022V13.16H102.022ZM104.022 39H97.4936V43H104.022V39ZM99.4936 41V13.16H95.4936V41H99.4936ZM114.054 7.4V5.4H112.054V7.4H114.054ZM126.822 7.4L127.454 5.50263L127.147 5.4H126.822V7.4ZM131.958 11.144L130.375 12.3661L130.387 12.3816L130.399 12.3968L131.958 11.144ZM129.03 27.224L128.008 25.5047L126.599 26.342L127.143 27.8879L129.03 27.224ZM133.878 41V43H136.702L135.765 40.3361L133.878 41ZM127.158 41L125.261 41.6325L125.716 43H127.158V41ZM123.078 28.76L124.975 28.1275L124.52 26.76H123.078V28.76ZM120.534 28.76V26.76H118.534V28.76H120.534ZM120.534 41V43H122.534V41H120.534ZM114.054 41H112.054V43H114.054V41ZM120.534 13.16V11.16H118.534V13.16H120.534ZM120.534 23.384H118.534V25.384H120.534V23.384ZM124.662 23.384V25.384H124.894L125.12 25.3308L124.662 23.384ZM126.438 21.752L124.782 20.6303L124.778 20.6364L124.774 20.6426L126.438 21.752ZM126.582 14.84L124.828 15.8017L124.84 15.8231L124.852 15.8443L126.582 14.84ZM124.95 13.16L125.408 11.2132L125.182 11.16H124.95V13.16ZM114.054 9.4H126.822V5.4H114.054V9.4ZM126.19 9.29736C127.797 9.83307 129.188 10.8289 130.375 12.3661L133.541 9.92189C131.912 7.81112 129.879 6.31093 127.454 5.50263L126.19 9.29736ZM130.399 12.3968C131.514 13.7841 132.118 15.5318 132.118 17.768H136.118C136.118 14.7562 135.282 12.0879 133.517 9.89122L130.399 12.3968ZM132.118 17.768C132.118 21.4245 130.733 23.8855 128.008 25.5047L130.052 28.9433C134.111 26.5305 136.118 22.6875 136.118 17.768H132.118ZM127.143 27.8879L131.991 41.6639L135.765 40.3361L130.917 26.5601L127.143 27.8879ZM133.878 39H127.158V43H133.878V39ZM129.055 40.3675L124.975 28.1275L121.181 29.3925L125.261 41.6325L129.055 40.3675ZM123.078 26.76H120.534V30.76H123.078V26.76ZM118.534 28.76V41H122.534V28.76H118.534ZM120.534 39H114.054V43H120.534V39ZM116.054 41V7.4H112.054V41H116.054ZM118.534 13.16V23.384H122.534V13.16H118.534ZM120.534 25.384H124.662V21.384H120.534V25.384ZM125.12 25.3308C126.471 25.0129 127.434 23.8634 128.102 22.8614L124.774 20.6426C124.508 21.0419 124.3 21.2792 124.161 21.4073C124.013 21.5427 124.027 21.4788 124.204 21.4372L125.12 25.3308ZM128.094 22.8737C129.011 21.5192 129.446 19.9682 129.446 18.296H125.446C125.446 19.2478 125.209 20.0008 124.782 20.6303L128.094 22.8737ZM129.446 18.296C129.446 16.6828 129.089 15.1745 128.312 13.8357L124.852 15.8443C125.227 16.4895 125.446 17.2852 125.446 18.296H129.446ZM128.336 13.8783C127.764 12.8353 126.857 11.554 125.408 11.2132L124.492 15.1068C124.272 15.0552 124.224 14.9591 124.331 15.0696C124.436 15.1771 124.608 15.3993 124.828 15.8017L128.336 13.8783ZM124.95 11.16H120.534V15.16H124.95V11.16ZM152.765 7.4L154.027 5.84913L153.476 5.4H152.765V7.4ZM157.757 14.744L155.871 15.4117L155.871 15.4117L157.757 14.744ZM157.805 33.464L159.685 34.1458L159.685 34.1458L157.805 33.464ZM152.765 41V43H153.542L154.116 42.4743L152.765 41ZM142.877 41L141.525 42.4743L142.099 43H142.877V41ZM137.885 14.744L135.999 14.0763L135.999 14.0763L137.885 14.744ZM142.877 7.4V5.4H142.165L141.614 5.84913L142.877 7.4ZM146.093 35.432L144.578 36.7379L145.176 37.432H146.093V35.432ZM149.549 35.432V37.432H150.465L151.063 36.7379L149.549 35.432ZM151.565 30.92L149.635 30.3938L149.632 30.4038L149.63 30.4139L151.565 30.92ZM151.613 17.672L149.678 18.1781L149.68 18.1854L151.613 17.672ZM149.597 13.16L151.111 11.8541L150.513 11.16H149.597V13.16ZM146.093 13.16V11.16H145.176L144.578 11.8541L146.093 13.16ZM144.029 17.672L142.101 17.1382L142.098 17.1484L142.096 17.1586L144.029 17.672ZM144.029 30.92L142.092 31.4189L142.096 31.4364L142.101 31.4538L144.029 30.92ZM151.502 8.95087C153.422 10.5145 154.89 12.6402 155.871 15.4117L159.642 14.0763C158.447 10.7038 156.587 7.9335 154.027 5.84913L151.502 8.95087ZM155.871 15.4117C156.883 18.2689 157.389 21.2111 157.389 24.248H161.389C161.389 20.7569 160.806 17.3631 159.642 14.0763L155.871 15.4117ZM157.389 24.248C157.389 27.2577 156.898 30.0982 155.924 32.7822L159.685 34.1458C160.823 31.0058 161.389 27.7023 161.389 24.248H157.389ZM155.924 32.7822C154.979 35.3884 153.482 37.6294 151.413 39.5257L154.116 42.4743C156.655 40.1466 158.518 37.3636 159.685 34.1458L155.924 32.7822ZM152.765 39H142.877V43H152.765V39ZM144.228 39.5257C142.159 37.6294 140.662 35.3884 139.717 32.7822L135.956 34.1458C137.123 37.3636 138.986 40.1466 141.525 42.4743L144.228 39.5257ZM139.717 32.7822C138.743 30.0982 138.253 27.2577 138.253 24.248H134.253C134.253 27.7023 134.818 31.0058 135.956 34.1458L139.717 32.7822ZM138.253 24.248C138.253 21.2111 138.758 18.2689 139.77 15.4117L135.999 14.0763C134.835 17.3631 134.253 20.7569 134.253 24.248H138.253ZM139.77 15.4117C140.751 12.6402 142.219 10.5145 144.139 8.95087L141.614 5.84913C139.054 7.9335 137.194 10.7038 135.999 14.0763L139.77 15.4117ZM142.877 9.4H152.765V5.4H142.877V9.4ZM146.093 37.432H149.549V33.432H146.093V37.432ZM151.063 36.7379C152.16 35.4654 152.928 33.6103 153.499 31.4261L149.63 30.4139C149.113 32.3896 148.537 33.5426 148.034 34.1261L151.063 36.7379ZM153.494 31.4462C154.12 29.1516 154.429 26.7499 154.429 24.248H150.429C150.429 26.4181 150.161 28.4644 149.635 30.3938L153.494 31.4462ZM154.429 24.248C154.429 21.7562 154.138 19.3902 153.545 17.1586L149.68 18.1854C150.175 20.0498 150.429 22.0678 150.429 24.248H154.429ZM153.547 17.1659C152.976 14.9816 152.208 13.1266 151.111 11.8541L148.082 14.4659C148.585 15.0494 149.161 16.2024 149.678 18.1781L153.547 17.1659ZM149.597 11.16H146.093V15.16H149.597V11.16ZM144.578 11.8541C143.49 13.1161 142.705 14.9586 142.101 17.1382L145.956 18.2058C146.504 16.2254 147.095 15.0599 147.607 14.4659L144.578 11.8541ZM142.096 17.1586C141.503 19.3902 141.213 21.7562 141.213 24.248H145.213C145.213 22.0678 145.466 20.0498 145.961 18.1854L142.096 17.1586ZM141.213 24.248C141.213 26.7404 141.503 29.1328 142.092 31.4189L145.965 30.4211C145.466 28.4832 145.213 26.4276 145.213 24.248H141.213ZM142.101 31.4538C142.705 33.6334 143.49 35.4759 144.578 36.7379L147.607 34.1261C147.095 33.5321 146.504 32.3666 145.956 30.3862L142.101 31.4538ZM178.108 41L176.307 41.8701L176.853 43H178.108V41ZM169.132 22.424L170.933 21.5539L170.121 19.8743L168.389 20.567L169.132 22.424ZM168.892 22.52L168.149 20.663L166.822 21.1939L166.895 22.6216L168.892 22.52ZM169.18 28.184H171.18V28.1332L171.178 28.0824L169.18 28.184ZM169.18 41V43H171.18V41H169.18ZM163.132 41H161.132V43H163.132V41ZM163.132 7.4V5.4H161.132V7.4H163.132ZM167.98 7.4L169.799 6.56762L169.264 5.4H167.98V7.4ZM176.812 26.696L174.994 27.5284L175.786 29.2604L177.555 28.553L176.812 26.696ZM177.052 26.6L177.795 28.457L179.177 27.9042L179.044 26.4218L177.052 26.6ZM176.524 20.696H174.524V20.7853L174.532 20.8742L176.524 20.696ZM176.524 7.4V5.4H174.524V7.4H176.524ZM182.572 7.4H184.572V5.4H182.572V7.4ZM182.572 41V43H184.572V41H182.572ZM179.909 40.1299L170.933 21.5539L167.331 23.2941L176.307 41.8701L179.909 40.1299ZM168.389 20.567L168.149 20.663L169.635 24.377L169.875 24.281L168.389 20.567ZM166.895 22.6216L167.183 28.2856L171.178 28.0824L170.89 22.4184L166.895 22.6216ZM167.18 28.184V41H171.18V28.184H167.18ZM169.18 39H163.132V43H169.18V39ZM165.132 41V7.4H161.132V41H165.132ZM163.132 9.4H167.98V5.4H163.132V9.4ZM166.162 8.23237L174.994 27.5284L178.631 25.8636L169.799 6.56762L166.162 8.23237ZM177.555 28.553L177.795 28.457L176.309 24.743L176.069 24.839L177.555 28.553ZM179.044 26.4218L178.516 20.5178L174.532 20.8742L175.06 26.7782L179.044 26.4218ZM178.524 20.696V7.4H174.524V20.696H178.524ZM176.524 9.4H182.572V5.4H176.524V9.4ZM180.572 7.4V41H184.572V7.4H180.572ZM182.572 39H178.108V43H182.572V39ZM187.179 41H185.179V43H187.179V41ZM187.179 7.4V5.4H185.179V7.4H187.179ZM193.755 7.4H195.755V5.4H193.755V7.4ZM193.755 41V43H195.755V41H193.755ZM189.179 41V7.4H185.179V41H189.179ZM187.179 9.4H193.755V5.4H187.179V9.4ZM191.755 7.4V41H195.755V7.4H191.755ZM193.755 39H187.179V43H193.755V39ZM198.382 41H196.382V43H198.382V41ZM198.382 7.4V5.4H196.382V7.4H198.382ZM204.958 7.4H206.958V5.4H204.958V7.4ZM204.958 21.56H202.958V23.56H204.958V21.56ZM205.198 21.56V23.56H206.523L207.04 22.3403L205.198 21.56ZM211.198 7.4V5.4H209.873L209.357 6.6197L211.198 7.4ZM217.966 7.4L219.799 8.20106L221.023 5.4H217.966V7.4ZM210.958 23.432L209.126 22.6309L208.783 23.4144L209.113 24.2034L210.958 23.432ZM218.302 41V43H221.306L220.147 40.2286L218.302 41ZM211.006 41L209.142 41.7249L209.638 43H211.006V41ZM205.294 26.312L207.158 25.5871L206.662 24.312H205.294V26.312ZM204.958 26.312V24.312H202.958V26.312H204.958ZM204.958 41V43H206.958V41H204.958ZM200.382 41V7.4H196.382V41H200.382ZM198.382 9.4H204.958V5.4H198.382V9.4ZM202.958 7.4V21.56H206.958V7.4H202.958ZM204.958 23.56H205.198V19.56H204.958V23.56ZM207.04 22.3403L213.04 8.1803L209.357 6.6197L203.357 20.7797L207.04 22.3403ZM211.198 9.4H217.966V5.4H211.198V9.4ZM216.134 6.59894L209.126 22.6309L212.791 24.2331L219.799 8.20106L216.134 6.59894ZM209.113 24.2034L216.457 41.7714L220.147 40.2286L212.803 22.6606L209.113 24.2034ZM218.302 39H211.006V43H218.302V39ZM212.87 40.2751L207.158 25.5871L203.43 27.0369L209.142 41.7249L212.87 40.2751ZM205.294 24.312H204.958V28.312H205.294V24.312ZM202.958 26.312V41H206.958V26.312H202.958ZM204.958 39H198.382V43H204.958V39ZM242.592 41L240.627 41.3718L240.935 43H242.592V41ZM241.584 35.672L243.55 35.3002L243.241 33.672H241.584V35.672ZM234 35.672V33.672H232.343L232.035 35.3002L234 35.672ZM232.992 41V43H234.649L234.958 41.3718L232.992 41ZM226.464 41L224.501 40.6213L224.042 43H226.464V41ZM232.944 7.4V5.4H231.293L230.981 7.02126L232.944 7.4ZM242.88 7.4L244.848 7.04025L244.548 5.4H242.88V7.4ZM249.024 41V43H251.423L250.992 40.6403L249.024 41ZM237.696 13.64V11.64H236.003L235.724 13.3098L237.696 13.64ZM235.824 24.824L237.791 25.1876L237.794 25.1709L237.797 25.1542L235.824 24.824ZM234.768 30.536L232.802 30.1724L232.365 32.536H234.768V30.536ZM240.768 30.536V32.536H243.192L242.732 30.1565L240.768 30.536ZM239.664 24.824L237.692 25.1542L237.696 25.1789L237.701 25.2035L239.664 24.824ZM237.792 13.64L239.765 13.3098L239.485 11.64H237.792V13.64ZM244.558 40.6282L243.55 35.3002L239.619 36.0438L240.627 41.3718L244.558 40.6282ZM241.584 33.672H234V37.672H241.584V33.672ZM232.035 35.3002L231.027 40.6282L234.958 41.3718L235.966 36.0438L232.035 35.3002ZM232.992 39H226.464V43H232.992V39ZM228.428 41.3787L234.908 7.77873L230.981 7.02126L224.501 40.6213L228.428 41.3787ZM232.944 9.4H242.88V5.4H232.944V9.4ZM240.913 7.75975L247.057 41.3597L250.992 40.6403L244.848 7.04025L240.913 7.75975ZM249.024 39H242.592V43H249.024V39ZM235.724 13.3098L233.852 24.4938L237.797 25.1542L239.669 13.9702L235.724 13.3098ZM233.858 24.4604L232.802 30.1724L236.735 30.8996L237.791 25.1876L233.858 24.4604ZM234.768 32.536H240.768V28.536H234.768V32.536ZM242.732 30.1565L241.628 24.4445L237.701 25.2035L238.805 30.9155L242.732 30.1565ZM241.637 24.4938L239.765 13.3098L235.82 13.9702L237.692 25.1542L241.637 24.4938ZM237.792 11.64H237.696V15.64H237.792V11.64ZM251.82 41H249.82V43H251.82V41ZM251.82 7.4V5.4H249.82V7.4H251.82ZM265.5 7.4L266.189 5.52266L265.855 5.4H265.5V7.4ZM269.676 10.424L268.148 11.7144L268.148 11.7144L269.676 10.424ZM267.948 23.24L266.908 21.5312L265.948 22.1155V23.24H267.948ZM267.948 23.432H265.948V24.61L266.978 25.1812L267.948 23.432ZM266.268 41V43H266.851L267.343 42.6862L266.268 41ZM258.348 21.272H256.348V23.272H258.348V21.272ZM263.1 21.272V23.272H263.664L264.146 22.9766L263.1 21.272ZM263.244 13.16L264.474 11.5834L263.932 11.16H263.244V13.16ZM258.348 13.16V11.16H256.348V13.16H258.348ZM258.348 35.432H256.348V37.432H258.348V35.432ZM263.292 35.432V37.432H263.938L264.463 37.0534L263.292 35.432ZM264.828 33.464L263.065 32.5196L263.051 32.5444L263.039 32.5696L264.828 33.464ZM264.972 28.328L266.745 27.4029L266.745 27.4029L264.972 28.328ZM263.532 26.696L264.575 24.9894L264.094 24.696H263.532V26.696ZM258.348 26.696V24.696H256.348V26.696H258.348ZM253.82 41V7.4H249.82V41H253.82ZM251.82 9.4H265.5V5.4H251.82V9.4ZM264.81 9.27734C266.012 9.71899 267.126 10.5048 268.148 11.7144L271.204 9.13364C269.793 7.4632 268.123 6.233 266.189 5.52266L264.81 9.27734ZM268.148 11.7144C269.032 12.7612 269.5 14.0364 269.5 15.656H273.5C273.5 13.1796 272.752 10.9668 271.204 9.13364L268.148 11.7144ZM269.5 15.656C269.5 18.8155 268.499 20.564 266.908 21.5312L268.987 24.9488C272.132 23.036 273.5 19.7285 273.5 15.656H269.5ZM265.948 23.24V23.432H269.948V23.24H265.948ZM266.978 25.1812C268.177 25.8459 268.996 26.6508 269.526 27.5729C270.058 28.4988 270.364 29.6541 270.364 31.112H274.364C274.364 29.0819 273.933 27.2132 272.993 25.5791C272.052 23.9412 270.662 22.6501 268.917 21.6828L266.978 25.1812ZM270.364 31.112C270.364 34.2813 268.817 37.0019 265.192 39.3138L267.343 42.6862C271.846 39.8141 274.364 35.9427 274.364 31.112H270.364ZM266.268 39H251.82V43H266.268V39ZM258.348 23.272H263.1V19.272H258.348V23.272ZM264.146 22.9766C266.192 21.7211 267.212 19.7364 267.212 17.336H263.212C263.212 18.4556 262.823 19.0949 262.054 19.5674L264.146 22.9766ZM267.212 17.336C267.212 15.001 266.303 13.0109 264.474 11.5834L262.013 14.7366C262.808 15.3571 263.212 16.151 263.212 17.336H267.212ZM263.244 11.16H258.348V15.16H263.244V11.16ZM256.348 13.16V21.272H260.348V13.16H256.348ZM258.348 37.432H263.292V33.432H258.348V37.432ZM264.463 37.0534C265.385 36.387 266.08 35.4318 266.616 34.3584L263.039 32.5696C262.679 33.2882 262.35 33.645 262.121 33.8106L264.463 37.0534ZM266.591 34.4084C267.205 33.2615 267.548 32.0436 267.548 30.776H263.548C263.548 31.3004 263.41 31.8745 263.065 32.5196L266.591 34.4084ZM267.548 30.776C267.548 29.584 267.289 28.4468 266.745 27.4029L263.198 29.2531C263.422 29.6812 263.548 30.176 263.548 30.776H267.548ZM266.745 27.4029C266.231 26.4187 265.524 25.5699 264.575 24.9894L262.489 28.4026C262.691 28.5261 262.944 28.7653 263.198 29.2531L266.745 27.4029ZM263.532 24.696H258.348V28.696H263.532V24.696ZM256.348 26.696V35.432H260.348V26.696H256.348Z" fill="#FCF8F8" mask="url(#path-1-outside-1_83_607)"/>
</g>
<defs>
<filter id="filter0_d_83_607" x="0.741516" y="0.399994" width="284.622" height="53.6" filterUnits="userSpaceOnUse" color-interpolation-filters="sRGB">
<feFlood flood-opacity="0" result="BackgroundImageFix"/>
<feColorMatrix in="SourceAlpha" type="matrix" values="0 0 0 0 0 0 0 0 0 0 0 0 0 0 0 0 0 0 127 0" result="hardAlpha"/>
<feOffset dx="3" dy="3"/>
<feGaussianBlur stdDeviation="5"/>
<feComposite in2="hardAlpha" operator="out"/>
<feColorMatrix type="matrix" values="0 0 0 0 0.933333 0 0 0 0 0.898039 0 0 0 0 0.0392157 0 0 0 1 0"/>
<feBlend mode="normal" in2="BackgroundImageFix" result="effect1_dropShadow_83_607"/>
<feBlend mode="normal" in="SourceGraphic" in2="effect1_dropShadow_83_607" result="shape"/>
</filter>
</defs>
</svg>
