<svg width="198" height="56" viewBox="0 0 198 56" fill="none" xmlns="http://www.w3.org/2000/svg">
<path d="M99.3099 18.475C100.124 18.4673 100.816 18.3652 100.805 17.804V17.7198C100.816 17.161 100.124 17.059 99.3099 17.0514C98.4921 17.059 97.7996 17.161 97.8111 17.7198V17.804C97.7996 18.3652 98.4921 18.4673 99.3099 18.475Z" fill="#394149"/>
<path d="M69.5434 17.3473C69.5434 17.184 69.3494 17.0539 69.1059 17.0539H66.6748V17.6381H69.1059C69.2277 17.6381 69.3303 17.61 69.4141 17.5539C69.5015 17.4952 69.5434 17.4264 69.5434 17.3473Z" fill="#394149"/>
<path d="M83.2282 17.0462L83.9283 18.0591H82.5244L83.2282 17.0462Z" fill="#394149"/>
<path d="M114.463 17.0462L115.163 18.0591H113.759L114.463 17.0462Z" fill="#394149"/>
<path d="M64.7296 38.374L63.6949 36.8768L62.6544 38.374H64.7296Z" fill="#394149"/>
<path d="M89.149 37.9441C89.149 38.4532 88.716 38.8719 87.9512 38.8719H84.723V37.0164H87.9512C88.716 37.0164 89.149 37.4312 89.149 37.9441Z" fill="#394149"/>
<path d="M97.3263 36.8768L98.3611 38.374H96.2858L97.3263 36.8768Z" fill="#394149"/>
<path d="M109.902 36.8882C110.262 36.8882 110.549 37.0806 110.549 37.3219C110.549 37.4388 110.487 37.5407 110.358 37.6274C110.234 37.7104 110.082 37.7518 109.902 37.7518H106.308V36.8882H109.902Z" fill="#394149"/>
<path d="M121.791 37.9441C121.791 38.4532 121.358 38.8719 120.593 38.8719H117.364V37.0164H120.593C121.358 37.0164 121.791 37.4312 121.791 37.9441Z" fill="#394149"/>
<path d="M51.0654 28.4943L47.3147 22.6873H40.8797V32.3656H45.568V27.1381L48.951 32.3656H53.143L56.5628 27.1381V32.3656H61.2328V22.6873H54.9999L51.0654 28.4943Z" fill="#394149"/>
<path d="M80.3671 32.3656V29.9614H70.0159V28.7038H79.9443V26.349H70.0159V25.1037H80.2385V22.6873H65.162V32.3656H80.3671Z" fill="#394149"/>
<path d="M84.3223 30.6518C85.7564 31.8971 88.3119 32.5135 91.3824 32.5135C93.6882 32.5135 95.3784 32.1995 96.5558 31.7014C96.7584 31.6157 96.9459 31.5245 97.1187 31.4286L97.2475 32.3656H101.2V26.6325H91.603V28.7162H96.7327C96.7101 28.8148 96.6317 28.9696 96.5189 29.1171C96.4486 29.2093 96.3649 29.2985 96.273 29.3696C95.7399 29.7888 94.3241 30.1586 92.4855 30.1586C90.5734 30.1586 89.3415 29.8258 88.6796 29.308C88.2384 28.9257 87.981 28.3833 87.981 27.5696C87.981 26.7189 88.2384 26.1394 88.7348 25.7572C89.4518 25.2147 90.6653 24.9805 92.4488 24.9805C94.0484 24.9805 95.1515 25.227 95.6663 25.5353C95.9973 25.7202 96.2547 25.9791 96.3098 26.1518H101.072C101.065 26.0379 101.041 25.8989 101 25.7508C100.93 25.4978 100.811 25.2183 100.649 24.9928C99.5089 23.4393 96.8613 22.5146 92.3569 22.5146C88.4407 22.5146 85.8114 23.316 84.359 24.5243C83.403 25.3503 82.9617 26.386 82.9617 27.5449C82.9617 28.8271 83.4765 29.9244 84.3223 30.6518Z" fill="#394149"/>
<path d="M88.579 27.5695C88.579 26.765 88.8243 26.2997 89.1842 26.0218C89.7255 25.6133 90.7132 25.3813 92.4489 25.3813C93.9922 25.3813 94.9157 25.6232 95.2681 25.8343L95.2758 25.8388L95.2836 25.8433C95.4049 25.911 95.5157 25.9945 95.5995 26.0758C95.6823 26.1562 95.7155 26.212 95.7237 26.2316H91.0052V29.1171H95.8083C95.6363 29.2474 95.2671 29.4101 94.6805 29.5408C94.0966 29.6709 93.3473 29.7577 92.4856 29.7577C90.6689 29.7577 89.6471 29.4423 89.1435 29.0545C88.8143 28.7651 88.579 28.3213 88.579 27.5695Z" fill="#394149"/>
<path d="M113.691 26.2534L112.321 28.0071H114.985L113.691 26.2534Z" fill="#394149"/>
<path fill-rule="evenodd" clip-rule="evenodd" d="M117.511 30.5778L118.78 32.3656H124.093L116.812 22.6873H110.873L103.17 32.3656H108.373L109.715 30.5778H117.511ZM111.333 28.4079L113.153 26.0778L113.705 25.1901L114.22 26.0654L115.948 28.4079H111.333Z" fill="#394149"/>
<path fill-rule="evenodd" clip-rule="evenodd" d="M155.876 49.1238H155.868C155.765 49.1238 155.663 49.1234 155.561 49.1227V49.1238H43.1019C33.1782 49.1238 24.3262 46.0466 18.5523 41.2377H35.1216V39.8293H16.9998C14.2964 37.1522 12.4849 34.037 11.8513 30.6757H35.1216V29.2675H11.6567C11.6196 28.8481 11.6009 28.4255 11.6009 28C11.6009 25.2121 12.4062 22.5505 13.8696 20.1137H35.1216V18.7055H14.8062C17.0324 15.6636 20.3172 13.0333 24.3388 11.0305H137.112C138.518 10.3303 140.014 9.70685 141.586 9.16925C141.162 9.31413 140.744 9.46515 140.332 9.62222H27.5589C32.1451 7.87431 37.4496 6.87616 43.1018 6.87616H155.561V6.87715C155.666 6.87646 155.771 6.87616 155.876 6.87616C173.273 6.87616 187.377 16.3335 187.377 28C187.377 39.6663 173.273 49.1238 155.876 49.1238ZM167.589 37.9073C168.999 35.058 169.841 31.6737 169.841 28C169.841 24.5752 169.108 21.4019 167.868 18.679C167.715 18.3466 167.556 18.0209 167.391 17.7022C167.113 17.1715 166.816 16.6604 166.5 16.1707C166.075 15.5094 165.617 14.8869 165.131 14.3073C162.833 11.573 160.212 10.1004 157.766 9.60461V16.1707H164.199C164.743 16.9494 165.24 17.7972 165.679 18.7055H157.766V26.7325H167.706C167.729 27.1502 167.741 27.5728 167.741 28C167.741 28.4271 167.729 28.8497 167.706 29.2674H157.766V37.2944H165.678C165.24 38.2027 164.743 39.0506 164.199 39.8293H157.766V46.3954C160.212 45.8997 162.833 44.427 165.131 41.6926C165.617 41.1131 166.076 40.4906 166.5 39.8293C166.892 39.2205 167.256 38.5787 167.589 37.9073ZM171.816 18.7055C172.824 21.1523 173.448 23.8655 173.589 26.7325H183.533C183.24 23.8223 181.949 21.0957 179.888 18.7055H171.816ZM177.26 16.1707H170.58C169.368 14.0405 167.838 12.1877 166.071 10.7087C170.462 11.8738 174.302 13.7688 177.26 16.1707ZM153.986 9.60434V16.1707H145.25C145.675 15.5094 146.133 14.8869 146.621 14.3073C148.918 11.5726 151.54 10.0998 153.986 9.60434ZM145.68 10.7086C143.912 12.1876 142.384 14.0404 141.171 16.1707H134.49C137.448 13.7687 141.29 11.8736 145.68 10.7086ZM139.935 18.7055H127.839V20.1137H130.766C129.344 22.1461 128.454 24.3792 128.218 26.7325H138.161C138.304 23.8655 138.926 21.1523 139.935 18.7055ZM153.986 18.7055H143.872C142.792 21.083 142.101 23.8026 141.944 26.7325H153.986V18.7055ZM173.589 29.2674C173.448 32.1344 172.824 34.8475 171.816 37.2944H179.888C181.949 34.9042 183.24 32.1776 183.533 29.2674H173.589ZM143.872 37.2944C142.792 34.917 142.101 32.1973 141.944 29.2674H153.986V37.2944H143.872ZM139.935 37.2944C138.926 34.8475 138.304 32.1344 138.161 29.2674H128.218C128.51 32.1776 129.801 34.9042 131.863 37.2944H139.935ZM170.58 39.8293C169.368 41.9594 167.838 43.8122 166.072 45.2911C170.462 44.1261 174.302 42.231 177.26 39.8293H170.58ZM145.25 39.8293H153.986V46.3957C151.54 45.9003 148.918 44.4275 146.621 41.6926C146.133 41.1131 145.675 40.4906 145.25 39.8293ZM141.171 39.8293L127.839 39.8293V41.2376H136.414C139.043 42.9759 142.187 44.3646 145.68 45.2913C143.912 43.8124 142.384 41.9595 141.171 39.8293ZM99.3095 15.9645C97.3845 15.967 95.8094 16.3395 95.817 17.6381V17.8881C95.8094 19.1841 97.3845 19.5591 99.3095 19.5617C101.231 19.5591 102.806 19.1841 102.798 17.8881V17.6381C102.798 16.342 101.235 15.9645 99.3095 15.9645ZM39.5027 16.0487V19.4775H41.4963V16.0487H39.5027ZM47.5417 17.8651L45.297 16.0487H42.554V19.4775H44.5476V17.383L47.2944 19.4775H49.5391V16.0487H47.5417V17.8651ZM54.5952 17.1406V19.4826H52.6017V17.1406H50.2315V16.0538H56.9654V17.1406H54.5952ZM57.6351 19.4826H63.6195V18.6025H59.6286V18.1637H63.6195V17.3702H59.6286V16.9314H63.6195V16.0538H57.6351V19.4826ZM64.6809 19.48V16.0512H69.6078C70.6616 16.0436 71.5557 16.638 71.5405 17.3472C71.5405 17.6049 71.4377 17.8396 71.2323 18.0489C71.0307 18.2554 70.7606 18.4137 70.4258 18.5183L71.5405 19.48H69.4176L68.4551 18.6433H66.6745V19.48H64.6809ZM77.1483 17.8651L74.9037 16.0487H72.1606V19.4775H74.1542V17.383L76.901 19.4775H79.1457V16.0487H77.1483V17.8651ZM81.5426 19.4826H79.2979L82.041 16.0538H84.4112L87.1542 19.4826H84.9095L84.5063 18.8958H81.9459L81.5426 19.4826ZM90.1977 19.4826V17.1406H92.568V16.0538H85.8341V17.1406H88.2043V19.4826H90.1977ZM93.2375 19.4775V16.0487H95.2311V19.4775H93.2375ZM106.139 16.0487L108.383 17.8651V16.0487H110.381V19.4775H108.136L105.389 17.383V19.4775H103.396V16.0487H106.139ZM110.533 19.4826H112.777L113.181 18.8958H115.741L116.145 19.4826H118.389L115.647 16.0538H113.276L110.533 19.4826ZM118.545 19.4775V16.0487H120.539V18.3906H124.53V19.4775H118.545ZM44.6683 36.5788C43.7515 36.5788 42.6267 36.6694 42.6267 37.0729C42.6267 37.2954 43.5434 37.3256 44.7301 37.3633L44.7431 37.3637C46.8514 37.4353 49.8029 37.5356 49.7974 38.8039C49.7974 40.2521 47.3228 40.5954 44.6683 40.5954C42.0194 40.5916 39.8203 40.3766 39.5391 38.8039H42.6267C42.9641 39.1962 43.7459 39.298 44.6683 39.298C45.585 39.298 46.7098 39.1962 46.7098 38.8039C46.7098 38.5814 45.7931 38.5475 44.6064 38.5098L44.5932 38.5094C42.485 38.4377 39.5335 38.3375 39.5391 37.0729C39.5391 35.6247 42.0137 35.2777 44.6683 35.2777C47.3171 35.289 49.5162 35.4889 49.7974 37.0729H46.7098C46.3723 36.6731 45.5906 36.5788 44.6683 36.5788ZM56.3381 37.0163V40.4784H53.3912V37.0163H49.8874V35.4098H59.8419V37.0163H56.3381ZM57.8847 40.4784H61.2029L61.799 39.611H65.5841L66.1802 40.4784H69.4984L65.4434 35.4098H61.9396L57.8847 40.4784ZM73.784 35.4022L77.1021 38.0874V35.4022H80.0548V40.4709H76.7366L72.676 37.3746V40.4709H69.729V35.4022H73.784ZM81.7756 35.4098V40.4784H88.5021C90.5773 40.4973 92.1184 39.3206 92.1014 37.944C92.1184 36.56 90.5773 35.3909 88.5021 35.4098H81.7756ZM94.8347 40.4784H91.5165L95.5715 35.4098H99.0753L103.13 40.4784H99.8119L99.2158 39.611H95.4309L94.8347 40.4784ZM103.361 35.406V40.4747H106.308V39.2376H108.94L110.363 40.4747H113.501L111.853 39.0528C112.348 38.8982 112.747 38.6645 113.045 38.3589C113.349 38.0497 113.501 37.7027 113.501 37.3218C113.523 36.2733 112.202 35.3947 110.644 35.406H103.361ZM114.418 40.4784V35.4098H121.144C123.219 35.3909 124.76 36.56 124.744 37.944C124.76 39.3206 123.219 40.4973 121.144 40.4784H114.418ZM61.8303 32.7665H55.9645V29.0501L53.5333 32.7665H48.5583L46.1655 29.0691V32.7665H40.2814V22.2863H47.7069L51.0781 27.5056L54.6145 22.2863H61.8303V32.7665ZM80.9652 32.7665H64.5643V22.2863H80.8365V25.5046H70.6139V25.948H80.5424V29.1047H70.6139V29.5604H80.9652V32.7665ZM101.798 32.7665H96.702L96.6165 32.1442C95.3389 32.6308 93.6094 32.9144 91.3822 32.9144C88.214 32.9144 85.4414 32.279 83.8498 30.8977C82.9029 30.0829 82.3637 28.8918 82.3637 27.5448C82.3637 26.3176 82.8319 25.1896 83.8865 24.2784L83.8899 24.2754L83.8934 24.2726C85.4955 22.9398 88.3265 22.1137 92.3568 22.1137C96.9632 22.1137 99.8991 23.0629 101.185 24.8157L101.186 24.8171L101.187 24.8185C101.486 25.2338 101.648 25.7825 101.669 26.1356L101.675 26.2315H101.798V32.7665ZM110.084 30.9787L108.741 32.7665H102.173L110.515 22.2863H117.181L125.064 32.7665H118.401L117.134 30.9787H110.084ZM39.4268 45.6736H125.004V44.2653H39.4268V45.6736Z" fill="#394149"/>
<path fill-rule="evenodd" clip-rule="evenodd" d="M43.1021 1.80646H155.876C177.448 1.80646 194.937 13.5337 194.937 28C194.937 42.4663 177.448 54.1936 155.876 54.1936H43.1021C21.5291 54.1936 4.04083 42.4663 4.04083 28C4.04083 13.5337 21.5291 1.80646 43.1021 1.80646ZM43.1021 4.34136C23.6168 4.34136 7.82102 14.9337 7.82102 28C7.82102 41.0663 23.6168 51.6587 43.1021 51.6587H155.876C175.361 51.6587 191.156 41.0663 191.156 28C191.156 14.9337 175.361 4.34136 155.876 4.34136H43.1021Z" fill="#394149"/>
</svg>
