<svg width="177" height="33" viewBox="0 0 177 33" fill="none" xmlns="http://www.w3.org/2000/svg">
<path fill-rule="evenodd" clip-rule="evenodd" d="M144.876 0.279935H144.868C144.765 0.279935 144.663 0.280214 144.561 0.280768V0.279935H32.1019C22.1782 0.279935 13.3262 2.64279 7.55232 6.33538H24.1216V7.41675H5.99984C3.2964 9.47243 1.48489 11.8644 0.851287 14.4455H24.1216V15.5268H0.656654C0.619614 15.8488 0.600891 16.1733 0.600891 16.5C0.600891 18.6407 1.40623 20.6845 2.86955 22.5555H24.1216V23.6368H3.80622C6.03244 25.9726 9.31722 27.9923 13.3388 29.5301H126.112C127.518 30.0678 129.014 30.5465 130.586 30.9593C130.162 30.8481 129.744 30.7321 129.332 30.6115H16.5589C21.1451 31.9537 26.4496 32.7201 32.1018 32.7201H144.561V32.7193C144.666 32.7199 144.771 32.7201 144.876 32.7201C162.273 32.7201 176.377 25.4582 176.377 16.5C176.377 7.54194 162.273 0.279935 144.876 0.279935ZM156.589 8.89263C157.999 11.0805 158.841 13.6792 158.841 16.5C158.841 19.1297 158.108 21.5664 156.868 23.6572C156.715 23.9125 156.556 24.1626 156.391 24.4072C156.113 24.8148 155.816 25.2072 155.5 25.5832C155.075 26.091 154.617 26.569 154.131 27.014C151.833 29.1136 149.212 30.2443 146.766 30.625V25.5832H153.199C153.743 24.9853 154.24 24.3343 154.679 23.6368H146.766V17.4733H156.706C156.729 17.1525 156.741 16.828 156.741 16.5C156.741 16.172 156.729 15.8475 156.706 15.5268H146.766V9.3632H154.678C154.24 8.66577 153.743 8.01473 153.199 7.41683H146.766V2.37494C149.212 2.75555 151.833 3.88639 154.131 5.98604C154.617 6.43102 155.076 6.90901 155.5 7.41683C155.892 7.88428 156.256 8.37704 156.589 8.89263ZM160.816 23.6368C161.824 21.758 162.448 19.6747 162.589 17.4733H172.533C172.24 19.7079 170.949 21.8015 168.888 23.6368H160.816ZM166.26 25.5832H159.58C158.368 27.2189 156.838 28.6416 155.071 29.7772C159.462 28.8826 163.302 27.4275 166.26 25.5832ZM142.986 30.6252V25.5832H134.25C134.675 26.091 135.133 26.569 135.621 27.014C137.918 29.1139 140.54 30.2448 142.986 30.6252ZM134.68 29.7773C132.912 28.6417 131.384 27.219 130.171 25.5832H123.49C126.448 27.4276 130.29 28.8828 134.68 29.7773ZM128.935 23.6368H116.839V22.5555H119.766C118.344 20.995 117.454 19.2802 117.218 17.4733H127.161C127.304 19.6747 127.926 21.758 128.935 23.6368ZM142.986 23.6368H132.872C131.792 21.8113 131.101 19.723 130.944 17.4733H142.986V23.6368ZM162.589 15.5268C162.448 13.3254 161.824 11.2421 160.816 9.3632H168.888C170.949 11.1985 172.24 13.2922 172.533 15.5268H162.589ZM132.872 9.3632C131.792 11.1888 131.101 13.2771 130.944 15.5268H142.986V9.3632H132.872ZM128.935 9.3632C127.926 11.2421 127.304 13.3254 127.161 15.5268H117.218C117.51 13.2922 118.801 11.1985 120.863 9.3632H128.935ZM159.58 7.41683C158.368 5.78116 156.838 4.35849 155.072 3.22287C159.462 4.11748 163.302 5.57261 166.26 7.41683H159.58ZM134.25 7.41683H142.986V2.37473C140.54 2.75514 137.918 3.88604 135.621 5.98604C135.133 6.43102 134.675 6.90901 134.25 7.41683ZM130.171 7.41683L116.839 7.41675V6.33545H125.414C128.043 5.00064 131.187 3.93431 134.68 3.22273C132.912 4.35835 131.384 5.78109 130.171 7.41683ZM88.3095 25.7416C86.3845 25.7396 84.8094 25.4536 84.817 24.4565V24.2645C84.8094 23.2693 86.3845 22.9814 88.3095 22.9794C90.2308 22.9814 91.8059 23.2693 91.7982 24.2645V24.4565C91.7982 25.4516 90.2346 25.7416 88.3095 25.7416ZM28.5027 25.6769V23.0441H30.4963V25.6769H28.5027ZM36.5417 24.2821L34.297 25.6769H31.554V23.0441H33.5476V24.6523L36.2944 23.0441H38.5391V25.6769H36.5417V24.2821ZM43.5952 24.8385V23.0401H41.6017V24.8385H39.2315V25.673H45.9654V24.8385H43.5952ZM46.6351 23.0401H52.6195V23.716H48.6286V24.0529H52.6195V24.6622H48.6286V24.9991H52.6195V25.673H46.6351V23.0401ZM53.6809 23.0421V25.675H58.6078C59.6616 25.6808 60.5557 25.2244 60.5405 24.6798C60.5405 24.4819 60.4377 24.3017 60.2323 24.1411C60.0307 23.9824 59.7606 23.8609 59.4258 23.7806L60.5405 23.0421H58.4176L57.4551 23.6846H55.6745V23.0421H53.6809ZM66.1483 24.2821L63.9037 25.6769H61.1606V23.0441H63.1542V24.6523L65.901 23.0441H68.1457V25.6769H66.1483V24.2821ZM70.5426 23.0401H68.2979L71.041 25.673H73.4112L76.1542 23.0401H73.9095L73.5063 23.4907H70.9459L70.5426 23.0401ZM79.1977 23.0401V24.8385H81.568V25.673H74.8341V24.8385H77.2043V23.0401H79.1977ZM82.2375 23.0441V25.6769H84.2311V23.0441H82.2375ZM95.1386 25.6769L97.3833 24.2821V25.6769H99.3807V23.0441H97.136L94.3892 24.6523V23.0441H92.3956V25.6769H95.1386ZM99.5329 23.0401H101.777L102.181 23.4907H104.741L105.145 23.0401H107.389L104.647 25.673H102.276L99.5329 23.0401ZM107.545 23.0441V25.6769H109.539V23.8786H113.53V23.0441H107.545ZM33.6683 9.9127C32.7515 9.9127 31.6267 9.84314 31.6267 9.53333C31.6267 9.36244 32.5434 9.33927 33.7301 9.31035L33.7431 9.31C35.8514 9.25501 38.8029 9.17802 38.7974 8.20414C38.7974 7.09211 36.3228 6.82856 33.6683 6.82856C31.0194 6.83147 28.8203 6.99654 28.5391 8.20414H31.6267C31.9641 7.90293 32.7459 7.82477 33.6683 7.82477C34.585 7.82477 35.7098 7.90293 35.7098 8.20414C35.7098 8.37496 34.7931 8.40104 33.6064 8.42996L33.5932 8.43031C31.485 8.48531 28.5335 8.56229 28.5391 9.53333C28.5391 10.6453 31.0137 10.9118 33.6683 10.9118C36.3171 10.9031 38.5162 10.7496 38.7974 9.53333H35.7098C35.3723 9.84029 34.5906 9.9127 33.6683 9.9127ZM45.3381 9.57674V6.91837H42.3912V9.57674H38.8874V10.8104H48.8419V9.57674H45.3381ZM46.8847 6.91837H50.2029L50.799 7.58439H54.5841L55.1802 6.91837H58.4984L54.4434 10.8104H50.9396L46.8847 6.91837ZM62.784 10.8162L66.1021 8.75433V10.8162H69.0548V6.92413H65.7366L61.676 9.30161V6.92413H58.729V10.8162H62.784ZM70.7756 10.8104V6.91837H77.5021C79.5773 6.90388 81.1184 7.80736 81.1014 8.8644C81.1184 9.92712 79.5773 10.8249 77.5021 10.8104H70.7756ZM83.8347 6.91837H80.5165L84.5715 10.8104H88.0753L92.1301 6.91837H88.8119L88.2158 7.58439H84.4309L83.8347 6.91837ZM92.3607 10.8133V6.92122H95.3078V7.8711H97.9399L99.3626 6.92122H102.501L100.853 8.013C101.348 8.13174 101.747 8.31123 102.045 8.54585C102.349 8.78325 102.501 9.04972 102.501 9.34219C102.523 10.1473 101.202 10.8219 99.6439 10.8133H92.3607ZM103.418 6.91837V10.8104H110.144C112.219 10.8249 113.76 9.92712 113.744 8.8644C113.76 7.80736 112.219 6.90388 110.144 6.91837H103.418ZM50.8303 12.84H44.9645V15.6937L42.5333 12.84H37.5583L35.1655 15.6791V12.84H29.2814V20.8873H36.7069L40.0781 16.8796L43.6145 20.8873H50.8303V12.84ZM69.9652 12.84H53.5643V20.8873H69.8365V18.4161H59.6139V18.0756H69.5424V15.6517H59.6139V15.3018H69.9652V12.84ZM90.7983 12.84H85.702L85.6165 13.3178C84.3389 12.9442 82.6094 12.7264 80.3822 12.7264C77.214 12.7264 74.4414 13.2143 72.8498 14.275C71.9029 14.9006 71.3637 15.8152 71.3637 16.8495C71.3637 17.7918 71.8319 18.658 72.8865 19.3576L72.8899 19.3599L72.8934 19.3621C74.4955 20.3855 77.3265 21.0199 81.3568 21.0199C85.9632 21.0199 88.8991 20.291 90.1851 18.9451L90.1862 18.944L90.1872 18.943C90.4862 18.6241 90.6479 18.2028 90.6689 17.9316L90.6747 17.8579H90.7983V12.84ZM99.0835 14.2128L97.7415 12.84H91.173L99.5148 20.8873H106.181L114.064 12.84H107.401L106.134 14.2128H99.0835ZM28.4268 2.92922H114.004V4.0106H28.4268V2.92922Z" fill="#394149"/>
</svg>
